<?xml version="1.0" encoding="UTF-8" standalone="no"?>
<svg
   xmlns:dc="http://purl.org/dc/elements/1.1/"
   xmlns:cc="http://creativecommons.org/ns#"
   xmlns:rdf="http://www.w3.org/1999/02/22-rdf-syntax-ns#"
   xmlns:svg="http://www.w3.org/2000/svg"
   xmlns="http://www.w3.org/2000/svg"
   xmlns:sodipodi="http://sodipodi.sourceforge.net/DTD/sodipodi-0.dtd"
   xmlns:inkscape="http://www.inkscape.org/namespaces/inkscape"
   width="12"
   height="12"
   viewBox="0 0 12 12"
   version="1.1"
   id="svg2"
   inkscape:version="0.91 r13725"
   sodipodi:docname="{Icon} Sublime Text Application Logo, Glyph ['_sublime-logo_'] [Format... '.SVG'].svg">
  <metadata
     id="metadata32">
    <rdf:RDF>
      <cc:Work
         rdf:about="">
        <dc:format>image/svg+xml</dc:format>
        <dc:type
           rdf:resource="http://purl.org/dc/dcmitype/StillImage" />
        <dc:title></dc:title>
      </cc:Work>
    </rdf:RDF>
  </metadata>
  <defs
     id="defs30" />
  <sodipodi:namedview
     pagecolor="#ffffff"
     bordercolor="#666666"
     borderopacity="1"
     objecttolerance="10"
     gridtolerance="10"
     guidetolerance="10"
     inkscape:pageopacity="0"
     inkscape:pageshadow="2"
     inkscape:window-width="1680"
     inkscape:window-height="1028"
     id="namedview28"
     showgrid="false"
     fit-margin-top="0"
     fit-margin-left="0"
     fit-margin-right="0"
     fit-margin-bottom="0"
     inkscape:zoom="39.333333"
     inkscape:cx="2.6979529"
     inkscape:cy="3.4915264"
     inkscape:window-x="0"
     inkscape:window-y="0"
     inkscape:window-maximized="1"
     inkscape:current-layer="svg2" />
  <g
     transform="scale(0.046875,0.046875)"
     id="g4">
    <path
       d="m 0,0 256,0 0,29.19 c -1.12,-2.68 -2.4,-5.57 -5,-7.14 -2.42,-1.66 -5.46,-1.63 -8.26,-1.9 0.03,-3.46 0.19,-7.14 -1.56,-10.27 C 239.07,5.49 234.63,2.79 230.13,1.37 227.11,1.02 224.07,1.25 221.04,1.21 157.34,1.2 93.65,1.23 29.95,1.2 24.91,1.28 20.09,4.14 16.76,7.81 13.29,11.63 13.19,17.03 13.38,21.89 7.34,22.32 2.23,26.65 0,32.15 L 0,0 Z"
       style="fill:#ffffff"
       id="path6"
       inkscape:connector-curvature="0" />
    <path
       d="m 0,229.53 c 3.89,9.21 12.36,17.77 22.97,17.57 71.34,0.01 142.68,-0.04 214.02,0.02 4.01,-0.12 8.56,0.53 11.99,-2.05 4.26,-3.19 6.1,-8.53 7.02,-13.57 l 0,7.77 c -1.24,6.19 -4.21,12.68 -10.39,15.26 -3.16,0.55 -6.4,0.18 -9.58,0.26 -70.02,0 -140.03,-0.03 -210.03,0.01 -3.21,-0.1 -6.69,0.54 -9.61,-1.13 C 8.57,250.23 1.59,243.57 0,234.9 l 0,-5.37 z"
       style="fill:#999999"
       id="path8"
       inkscape:connector-curvature="0" />
    <g
       id="g10">
      <g
         id="g12">
        <g
           id="g14">
          <path
             d="m 16.76,7.81 c 3.33,-3.67 8.15,-6.53 13.19,-6.61 63.7,0.03 127.39,0 191.09,0.01 3.03,0.04 6.07,-0.19 9.09,0.16 4.5,1.42 8.94,4.12 11.05,8.51 1.75,3.13 1.59,6.81 1.56,10.27 0.2,42.28 0.13,84.56 0.14,126.84 -0.13,22.07 0.29,44.15 -0.33,66.2 -0.17,-8.04 -0.04,-16.08 -0.5,-24.11 -1.8,6.18 -7.31,11.44 -14.02,11.3 -66,0.04 -132.01,-0.01 -198.01,0.03 -7.3,0.27 -13.62,-5.08 -16.06,-11.72 -0.31,8.13 -0.29,16.27 -0.28,24.4 -0.73,-6 -0.18,-12.06 -0.38,-18.08 C 13.3,137.3 13.23,79.59 13.38,21.89 13.19,17.03 13.29,11.63 16.76,7.81 Z"
             style="fill:#4c4c4c"
             id="path16"
             inkscape:connector-curvature="0" />
          <path
             d="m 99.48,58.5 c 9.2,-10.45 24.18,-14.08 37.6,-12.16 10.5,1.38 20.4,6.35 28.02,13.66 -4.19,5.14 -8.35,10.28 -12.47,15.47 -7.68,-6.16 -17.82,-10.37 -27.75,-7.97 -4.47,0.84 -8.52,4.81 -8.14,9.58 0.43,4.26 4.31,6.82 7.88,8.42 8.12,3.65 16.51,6.66 24.68,10.21 6.75,3.07 13.07,7.95 16.14,14.88 4.48,10.09 3.34,22.61 -3.32,31.49 -5.05,6.85 -12.79,11.31 -20.94,13.38 -18.5,4.56 -39.14,-0.72 -53.09,-13.7 0.03,-1.15 1.29,-1.87 1.86,-2.79 4.01,-4.66 7.87,-9.44 11.83,-14.13 7.86,6.56 17.74,11.63 28.21,11.22 4.89,-0.27 10.99,-1.85 12.64,-7.12 1.87,-4.49 -0.9,-9.47 -5.06,-11.43 -8.83,-4.48 -18.24,-7.7 -27.19,-11.93 C 103.96,102.42 98.24,97.45 95.09,90.93 90.02,80.53 91.62,67.11 99.48,58.5 Z"
             style="fill:#ff8100"
             id="path18"
             inkscape:connector-curvature="0" />
        </g>
        <path
           d="m 228.03,200.38 c 6.71,0.14 12.22,-5.12 14.02,-11.3 0.46,8.03 0.33,16.07 0.5,24.11 -1.1,6.91 -7.25,12.92 -14.4,12.98 -66.07,0.04 -132.14,-0.01 -198.21,0.02 -7.59,0.12 -14.66,-5.73 -16.26,-13.1 -0.01,-8.13 -0.03,-16.27 0.28,-24.4 2.44,6.64 8.76,11.99 16.06,11.72 66,-0.04 132.01,0.01 198.01,-0.03 z"
           style="fill:#262626"
           id="path20"
           inkscape:connector-curvature="0" />
      </g>
      <g
         id="g22">
        <path
           d="m 242.74,20.15 c 2.8,0.27 5.84,0.24 8.26,1.9 2.6,1.57 3.88,4.46 5,7.14 l 0,202.31 c -0.92,5.04 -2.76,10.38 -7.02,13.57 -3.43,2.58 -7.98,1.93 -11.99,2.05 C 165.65,247.06 94.31,247.11 22.97,247.1 12.36,247.3 3.89,238.74 0,229.53 L 0,32.15 c 2.23,-5.5 7.34,-9.83 13.38,-10.26 -0.15,57.7 -0.08,115.41 -0.08,173.12 0.2,6.02 -0.35,12.08 0.38,18.08 1.6,7.37 8.67,13.22 16.26,13.1 66.07,-0.03 132.14,0.02 198.21,-0.02 7.15,-0.06 13.3,-6.07 14.4,-12.98 0.62,-22.05 0.2,-44.13 0.33,-66.2 -0.01,-42.28 0.06,-84.56 -0.14,-126.84 z"
           style="fill:#d9d9d9"
           id="path24"
           inkscape:connector-curvature="0" />
        <path
           d="m 0,234.9 c 1.59,8.67 8.57,15.33 16.39,18.77 2.92,1.67 6.4,1.03 9.61,1.13 70,-0.04 140.01,-0.01 210.03,-0.01 3.18,-0.08 6.42,0.29 9.58,-0.26 6.18,-2.58 9.15,-9.07 10.39,-15.26 L 256,256 0,256 0,234.9 Z"
           style="fill:#ffffff"
           id="path26"
           inkscape:connector-curvature="0" />
      </g>
    </g>
  </g>
</svg>
